<svg width="1920" height="1080" viewBox="0 0 1920 1080" fill="none" xmlns="http://www.w3.org/2000/svg">
<g clip-path="url(#clip0)">
<path d="M1662.32 51.6986C1656.21 29.8247 1633.37 17.2794 1612.13 22.7479C1590.26 28.8597 1577.71 51.6986 1583.82 72.9291C1589.93 94.8029 1612.13 107.348 1633.37 101.236C1655.24 95.4463 1668.11 72.9291 1662.32 51.6986ZM1662.32 51.6986C1656.21 29.8247 1633.37 17.2794 1612.13 22.7479C1590.26 28.8597 1577.71 51.6986 1583.82 72.9291C1589.93 94.8029 1612.13 107.348 1633.37 101.236C1655.24 95.4463 1668.11 72.9291 1662.32 51.6986ZM1662.32 51.6986C1656.21 29.8247 1633.37 17.2794 1612.13 22.7479C1590.26 28.8597 1577.71 51.6986 1583.82 72.9291C1589.93 94.8029 1612.13 107.348 1633.37 101.236C1655.24 95.4463 1668.11 72.9291 1662.32 51.6986ZM1662.32 51.6986C1656.21 29.8247 1633.37 17.2794 1612.13 22.7479C1590.26 28.8597 1577.71 51.6986 1583.82 72.9291C1589.93 94.8029 1612.13 107.348 1633.37 101.236C1655.24 95.4463 1668.11 72.9291 1662.32 51.6986ZM960 -1566C-203.351 -1566 -1146 -622.852 -1146 540.322C-1146 948.204 -1029.86 1329.07 -828.459 1651.71L-454.617 1381.5L-446.574 1376.35L-439.496 1371.85L-427.27 1363.16L-418.584 1356.73L-411.506 1351.58L-411.828 1352.87C-349.092 1306.87 -286.356 1261.51 -223.62 1215.84L-37.9855 1081.06L334.892 811.814L547.551 658.054L581.332 633.928L645.033 587.929L703.587 545.79L780.157 490.14L829.38 454.434L869.596 425.162L882.465 415.512L897.264 404.253L926.219 475.665C792.382 587.929 291.781 1029.27 -196.273 1462.88C-196.273 1462.88 -199.49 1465.13 -204.96 1470.28C-268.983 1529.79 -672.745 1928.02 -277.347 2241.01C-270.27 2246.48 -264.8 2251.31 -259.653 2255.81V2256.13C84.5911 2501.25 505.083 2645.68 960.322 2645.68C2123.67 2645.68 3066.32 1702.53 3066.32 540C3066 -622.852 2123.35 -1566 960 -1566ZM1001.82 343.457C992.494 321.261 996.998 295.527 1015.66 281.695L1270.14 87.0826C1292.02 70.3556 1325.48 76.7891 1344.78 101.88C1363.76 126.97 1361.19 160.746 1338.67 177.473L1084.19 372.407C1066.49 385.918 1041.4 383.988 1021.77 369.512C1022.41 369.834 1022.41 370.799 1022.41 371.764C1027.56 406.505 965.147 460.546 965.147 460.546L927.506 366.296C958.07 342.813 984.773 336.702 1001.82 343.457ZM75.2611 1406.59C120.946 1284.35 475.485 1008.04 481.276 1004.18C480.311 1007.07 482.241 1022.83 426.905 1072.37C378.968 1115.47 207.811 1306.55 294.998 1258.94C375.751 1214.87 474.198 1163.4 483.206 1157.29C375.751 1266.98 29.2548 1529.15 75.2611 1406.59ZM533.395 1131.88L511.196 981.015C511.196 981.015 662.728 885.799 679.457 950.777C695.222 1015.76 533.395 1131.88 533.395 1131.88ZM1693.85 238.27C1701.89 272.045 1696.75 311.289 1674.23 351.177C1601.19 480.168 930.723 838.835 764.07 926.009C764.07 926.33 763.749 926.33 763.105 926.33C739.941 938.875 727.072 945.309 727.072 945.309L726.429 944.022C725.464 941.127 725.464 938.554 725.464 935.337C725.464 935.337 725.464 935.337 725.464 935.015C725.464 890.303 784.339 832.723 844.823 769.353C946.488 662.236 1072.28 550.293 1072.28 542.251C1068.1 533.566 739.62 756.165 714.203 773.857C853.188 653.551 1236.36 322.87 1363.76 217.361C1368.91 213.822 1373.41 209.319 1377.6 205.781C1381.46 202.564 1385.64 199.347 1390.14 196.452C1407.84 184.228 1431.65 181.011 1453.2 189.375C1488.59 203.85 1506.61 244.06 1492.77 280.73C1483.12 305.499 1460.6 320.618 1435.83 323.835C1485.05 337.345 1538.14 313.541 1557.12 264.968C1561.62 252.423 1563.55 239.878 1563.55 227.333C1563.23 191.627 1543.61 158.173 1511.43 140.481C1507.25 138.229 1504.03 135.977 1499.21 134.369C1490.52 130.509 1480.55 128.9 1471.22 127.935C1468.97 122.467 1467.04 116.355 1465.11 109.922C1437.76 11.8109 1495.67 -89.838 1593.79 -117.18C1647.52 -131.656 1702.86 -121.362 1745.97 -92.0897L1639.16 -9.41956C1663.29 -3.95105 1683.88 14.7061 1691.28 38.8315C1691.6 40.1183 1691.6 41.7267 1692.24 43.0134C1693.21 46.2301 1693.53 49.4468 1694.17 52.6636C1698.68 81.9359 1770.42 98.0197 1821.9 106.061C1806.13 168.145 1759.16 219.934 1693.85 238.27ZM2401.96 -374.519C2314.78 -374.519 2243.68 -304.073 2243.68 -216.578C2243.68 -210.466 2238.85 -205.962 2233.38 -205.962C2227.27 -205.962 2223.09 -210.466 2223.09 -216.578C2223.09 -303.751 2151.98 -374.519 2064.8 -374.519C2059.33 -374.519 2054.18 -379.023 2054.18 -385.135C2054.18 -391.247 2059.33 -395.75 2064.8 -395.75C2151.98 -395.75 2223.09 -466.197 2223.09 -553.692C2223.09 -559.16 2227.27 -563.985 2233.38 -563.985C2238.85 -563.985 2243.68 -559.482 2243.68 -553.692C2243.68 -466.518 2314.78 -395.75 2401.96 -395.75C2407.43 -395.75 2412.58 -391.247 2412.58 -385.135C2412.58 -379.023 2407.43 -374.519 2401.96 -374.519ZM1612.13 23.0696C1590.26 29.1814 1577.71 52.0203 1583.82 73.2507C1589.93 95.1245 1612.13 107.67 1633.37 101.558C1655.24 95.4463 1668.11 73.2507 1662.32 52.0203C1656.21 29.8247 1633.37 17.2795 1612.13 23.0696ZM1662.32 51.6986C1656.21 29.8247 1633.37 17.2794 1612.13 22.7479C1590.26 28.8597 1577.71 51.6986 1583.82 72.9291C1589.93 94.8029 1612.13 107.348 1633.37 101.236C1655.24 95.4463 1668.11 72.9291 1662.32 51.6986ZM1662.32 51.6986C1656.21 29.8247 1633.37 17.2794 1612.13 22.7479C1590.26 28.8597 1577.71 51.6986 1583.82 72.9291C1589.93 94.8029 1612.13 107.348 1633.37 101.236C1655.24 95.4463 1668.11 72.9291 1662.32 51.6986ZM1662.32 51.6986C1656.21 29.8247 1633.37 17.2794 1612.13 22.7479C1590.26 28.8597 1577.71 51.6986 1583.82 72.9291C1589.93 94.8029 1612.13 107.348 1633.37 101.236C1655.24 95.4463 1668.11 72.9291 1662.32 51.6986ZM1662.32 51.6986C1656.21 29.8247 1633.37 17.2794 1612.13 22.7479C1590.26 28.8597 1577.71 51.6986 1583.82 72.9291C1589.93 94.8029 1612.13 107.348 1633.37 101.236C1655.24 95.4463 1668.11 72.9291 1662.32 51.6986Z" fill="#FE3B1F"/>
</g>
<defs>
<clipPath id="clip0">
<rect width="4212" height="4212" fill="white" transform="translate(-1146 -1566)"/>
</clipPath>
</defs>
</svg>
